<?xml version="1.0" encoding="UTF-8" standalone="no"?><svg xmlns="http://www.w3.org/2000/svg" xmlns:xlink="http://www.w3.org/1999/xlink" contentScriptType="application/ecmascript" contentStyleType="text/css" height="307px" preserveAspectRatio="none" style="width:976px;height:307px;" version="1.1" viewBox="0 0 976 307" width="976px" zoomAndPan="magnify"><defs><filter height="300%" id="fyvmbu44fv5b4" width="300%" x="-1" y="-1"><feGaussianBlur result="blurOut" stdDeviation="2.0"/><feColorMatrix in="blurOut" result="blurOut2" type="matrix" values="0 0 0 0 0 0 0 0 0 0 0 0 0 0 0 0 0 0 .4 0"/><feOffset dx="4.0" dy="4.0" in="blurOut2" result="blurOut3"/><feBlend in="SourceGraphic" in2="blurOut3" mode="normal"/></filter></defs><g><ellipse cx="486.5" cy="20" fill="#000000" filter="url(#fyvmbu44fv5b4)" rx="10" ry="10" style="stroke: none; stroke-width: 1.0;"/><polygon fill="#FEFECE" filter="url(#fyvmbu44fv5b4)" points="394,50,589,50,579,73.9688,589,97.9375,394,97.9375" style="stroke: #A80036; stroke-width: 1.5;"/><text fill="#000000" font-family="sans-serif" font-size="12" lengthAdjust="spacingAndGlyphs" textLength="94" x="404" y="71.1387">current := root</text><text fill="#000000" font-family="sans-serif" font-size="12" lengthAdjust="spacingAndGlyphs" textLength="165" x="404" y="85.1074">left_nibbles := key_nibbles</text><rect fill="#FEFECE" filter="url(#fyvmbu44fv5b4)" height="33.9688" rx="12.5" ry="12.5" style="stroke: #A80036; stroke-width: 1.5;" width="218" x="377.5" y="117.9375"/><text fill="#000000" font-family="sans-serif" font-size="12" lengthAdjust="spacingAndGlyphs" textLength="198" x="387.5" y="139.0762">follow nibbles to first mistmatch</text><polygon fill="#FEFECE" filter="url(#fyvmbu44fv5b4)" points="32,171.9063,268,171.9063,280,183.9063,268,195.9063,32,195.9063,20,183.9063,32,171.9063" style="stroke: #A80036; stroke-width: 1.5;"/><text fill="#000000" font-family="sans-serif" font-size="11" lengthAdjust="spacingAndGlyphs" textLength="20" x="154" y="206.1167">yes</text><text fill="#000000" font-family="sans-serif" font-size="11" lengthAdjust="spacingAndGlyphs" textLength="236" x="32" y="187.7144">left_nibbles shorter than current nibbles?</text><polygon fill="#FEFECE" filter="url(#fyvmbu44fv5b4)" points="97,227.6167,203,227.6167,215,239.6167,203,251.6167,97,251.6167,85,239.6167,97,227.6167" style="stroke: #A80036; stroke-width: 1.5;"/><text fill="#000000" font-family="sans-serif" font-size="11" lengthAdjust="spacingAndGlyphs" textLength="106" x="97" y="243.4248">current has value?</text><text fill="#000000" font-family="sans-serif" font-size="11" lengthAdjust="spacingAndGlyphs" textLength="20" x="65" y="237.0225">yes</text><text fill="#000000" font-family="sans-serif" font-size="11" lengthAdjust="spacingAndGlyphs" textLength="14" x="215" y="237.0225">no</text><polygon fill="#FEFECE" filter="url(#fyvmbu44fv5b4)" points="28.25,261.6167,94.25,261.6167,104.25,278.6011,94.25,295.5854,28.25,295.5854" style="stroke: #A80036; stroke-width: 1.5;"/><text fill="#000000" font-family="sans-serif" font-size="12" lengthAdjust="spacingAndGlyphs" textLength="46" x="38.25" y="282.7554">current</text><polygon fill="#FEFECE" filter="url(#fyvmbu44fv5b4)" points="114.25,261.6167,363.25,261.6167,373.25,278.6011,363.25,295.5854,114.25,295.5854" style="stroke: #A80036; stroke-width: 1.5;"/><text fill="#000000" font-family="sans-serif" font-size="12" lengthAdjust="spacingAndGlyphs" textLength="229" x="124.25" y="282.7554">current's first descendant with value</text><polygon fill="#FEFECE" filter="url(#fyvmbu44fv5b4)" points="534.75,171.9063,745.75,171.9063,757.75,183.9063,745.75,195.9063,534.75,195.9063,522.75,183.9063,534.75,171.9063" style="stroke: #A80036; stroke-width: 1.5;"/><text fill="#000000" font-family="sans-serif" font-size="11" lengthAdjust="spacingAndGlyphs" textLength="20" x="644.25" y="206.1167">yes</text><text fill="#000000" font-family="sans-serif" font-size="11" lengthAdjust="spacingAndGlyphs" textLength="211" x="534.75" y="187.7144">left_nibbles longer or non lex. equal?</text><polygon fill="#FEFECE" filter="url(#fyvmbu44fv5b4)" points="485.25,227.6167,795.25,227.6167,807.25,239.6167,795.25,251.6167,485.25,251.6167,473.25,239.6167,485.25,227.6167" style="stroke: #A80036; stroke-width: 1.5;"/><text fill="#000000" font-family="sans-serif" font-size="11" lengthAdjust="spacingAndGlyphs" textLength="310" x="485.25" y="243.4248">current has descendant lex. greater than left_nibbles?</text><text fill="#000000" font-family="sans-serif" font-size="11" lengthAdjust="spacingAndGlyphs" textLength="20" x="453.25" y="237.0225">yes</text><text fill="#000000" font-family="sans-serif" font-size="11" lengthAdjust="spacingAndGlyphs" textLength="14" x="807.25" y="237.0225">no</text><polygon fill="#FEFECE" filter="url(#fyvmbu44fv5b4)" points="403.25,261.6167,523.25,261.6167,533.25,278.6011,523.25,295.5854,403.25,295.5854" style="stroke: #A80036; stroke-width: 1.5;"/><text fill="#000000" font-family="sans-serif" font-size="12" lengthAdjust="spacingAndGlyphs" textLength="100" x="413.25" y="282.7554">the descendant</text><polygon fill="#FEFECE" filter="url(#fyvmbu44fv5b4)" points="775.75,261.6167,858.75,261.6167,868.75,278.6011,858.75,295.5854,775.75,295.5854" style="stroke: #A80036; stroke-width: 1.5;"/><text fill="#000000" font-family="sans-serif" font-size="12" lengthAdjust="spacingAndGlyphs" textLength="63" x="785.75" y="282.7554">empty key</text><polygon fill="#FEFECE" filter="url(#fyvmbu44fv5b4)" points="878.75,244.2144,944.75,244.2144,954.75,261.1987,944.75,278.1831,878.75,278.1831" style="stroke: #A80036; stroke-width: 1.5;"/><text fill="#000000" font-family="sans-serif" font-size="12" lengthAdjust="spacingAndGlyphs" textLength="46" x="888.75" y="265.353">current</text><line style="stroke: #A80036; stroke-width: 1.5;" x1="486.5" x2="486.5" y1="30" y2="50"/><polygon fill="#A80036" points="482.5,40,486.5,50,490.5,40,486.5,44" style="stroke: #A80036; stroke-width: 1.0;"/><line style="stroke: #A80036; stroke-width: 1.5;" x1="486.5" x2="486.5" y1="97.9375" y2="117.9375"/><polygon fill="#A80036" points="482.5,107.9375,486.5,117.9375,490.5,107.9375,486.5,111.9375" style="stroke: #A80036; stroke-width: 1.0;"/><line style="stroke: #A80036; stroke-width: 1.5;" x1="85" x2="61.25" y1="239.6167" y2="239.6167"/><line style="stroke: #A80036; stroke-width: 1.5;" x1="61.25" x2="61.25" y1="239.6167" y2="261.6167"/><polygon fill="#A80036" points="57.25,251.6167,61.25,261.6167,65.25,251.6167,61.25,255.6167" style="stroke: #A80036; stroke-width: 1.0;"/><line style="stroke: #A80036; stroke-width: 1.5;" x1="215" x2="238.75" y1="239.6167" y2="239.6167"/><line style="stroke: #A80036; stroke-width: 1.5;" x1="238.75" x2="238.75" y1="239.6167" y2="261.6167"/><polygon fill="#A80036" points="234.75,251.6167,238.75,261.6167,242.75,251.6167,238.75,255.6167" style="stroke: #A80036; stroke-width: 1.0;"/><line style="stroke: #A80036; stroke-width: 1.5;" x1="473.25" x2="463.25" y1="239.6167" y2="239.6167"/><line style="stroke: #A80036; stroke-width: 1.5;" x1="463.25" x2="463.25" y1="239.6167" y2="261.6167"/><polygon fill="#A80036" points="459.25,251.6167,463.25,261.6167,467.25,251.6167,463.25,255.6167" style="stroke: #A80036; stroke-width: 1.0;"/><line style="stroke: #A80036; stroke-width: 1.5;" x1="807.25" x2="817.25" y1="239.6167" y2="239.6167"/><line style="stroke: #A80036; stroke-width: 1.5;" x1="817.25" x2="817.25" y1="239.6167" y2="261.6167"/><polygon fill="#A80036" points="813.25,251.6167,817.25,261.6167,821.25,251.6167,817.25,255.6167" style="stroke: #A80036; stroke-width: 1.0;"/><line style="stroke: #A80036; stroke-width: 1.5;" x1="150" x2="150" y1="195.9063" y2="227.6167"/><polygon fill="#A80036" points="146,217.6167,150,227.6167,154,217.6167,150,221.6167" style="stroke: #A80036; stroke-width: 1.0;"/><line style="stroke: #A80036; stroke-width: 1.5;" x1="640.25" x2="640.25" y1="195.9063" y2="227.6167"/><polygon fill="#A80036" points="636.25,217.6167,640.25,227.6167,644.25,217.6167,640.25,221.6167" style="stroke: #A80036; stroke-width: 1.0;"/><line style="stroke: #A80036; stroke-width: 1.5;" x1="280" x2="522.75" y1="183.9063" y2="183.9063"/><polygon fill="#A80036" points="512.75,179.9063,522.75,183.9063,512.75,187.9063,516.75,183.9063" style="stroke: #A80036; stroke-width: 1.0;"/><line style="stroke: #A80036; stroke-width: 1.5;" x1="486.5" x2="486.5" y1="151.9063" y2="156.9063"/><line style="stroke: #A80036; stroke-width: 1.5;" x1="486.5" x2="150" y1="156.9063" y2="156.9063"/><line style="stroke: #A80036; stroke-width: 1.5;" x1="150" x2="150" y1="156.9063" y2="171.9063"/><polygon fill="#A80036" points="146,161.9063,150,171.9063,154,161.9063,150,165.9063" style="stroke: #A80036; stroke-width: 1.0;"/><line style="stroke: #A80036; stroke-width: 1.5;" x1="757.75" x2="911.75" y1="183.9063" y2="183.9063"/><line style="stroke: #A80036; stroke-width: 1.5;" x1="911.75" x2="911.75" y1="183.9063" y2="244.2144"/><polygon fill="#A80036" points="907.75,234.2144,911.75,244.2144,915.75,234.2144,911.75,238.2144" style="stroke: #A80036; stroke-width: 1.0;"/><!--
@startuml lower bound algorithm
start
:current := root
left_nibbles := key_nibbles<

:follow nibbles to first mistmatch;

if (left_nibbles shorter than current nibbles?) then (yes)
    if (current has value?) then (yes)
        :current>
    else (no)
        :current's first descendant with value>
    endif
elseif (left_nibbles longer or non lex. equal?) then (yes)
    if (current has descendant lex. greater than left_nibbles?) then (yes)
        :the descendant>
    else (no)
        :empty key>
    endif
    detach
else
    :current>
endif
detach
@enduml

PlantUML version 1.2018.13(Mon Nov 26 20:11:51 MSK 2018)
(GPL source distribution)
Java Runtime: OpenJDK Runtime Environment
JVM: OpenJDK 64-Bit Server VM
Java Version: 11.0.8+10-post-Ubuntu-0ubuntu120.04
Operating System: Linux
OS Version: 5.4.0-45-generic
Default Encoding: UTF-8
Language: en
Country: US
--></g></svg>