<?xml version="1.0" encoding="utf-8"?>
<!-- Generator: Adobe Illustrator 24.3.0, SVG Export Plug-In . SVG Version: 6.00 Build 0)  -->
<svg xmlns:xlink="http://www.w3.org/1999/xlink" version="1.1" id="Layer_1" xmlns="http://www.w3.org/2000/svg" x="0px" y="0px"
	 viewBox="0 0 480 136" style="enable-background:new 0 0 480 136;" xml:space="preserve">
<style type="text/css">
	.st0{fill:#E3232C;}
</style>
<g>
	<g>
		<path class="st0" d="M61.74,83.97c1.08-1.88,2.01-3.5,3-5.22c-2.19,0-4.01,0-6.06,0C59.72,80.53,60.63,82.08,61.74,83.97z"/>
		<path class="st0" d="M43.75,73.52c2.12,0,3.89,0,6.01,0c-1.07-1.84-1.97-3.38-3.06-5.27C45.63,70.17,44.74,71.76,43.75,73.52z"/>
		<path class="st0" d="M49.24,53.48c0.08-0.15-0.24-0.75-0.39-0.76c-1.68-0.06-3.36-0.04-5.39-0.04c1.16,1.94,2.09,3.52,3.16,5.3
			C47.6,56.34,48.45,54.93,49.24,53.48z"/>
		<path class="st0" d="M59.39,47.46c1.61,0.05,3.23,0.03,4.84,0.03c0.07-0.13,0.14-0.25,0.2-0.38c-0.89-1.51-1.77-3.03-2.85-4.86
			c-0.99,1.71-1.84,3.15-2.64,4.62C58.88,46.97,59.22,47.45,59.39,47.46z"/>
		<path class="st0" d="M63.18,0.46C29.35-0.15-0.05,26.61-0.32,62.93c-0.24,33.06,25.86,62.26,61.81,62.84
			c33.57,0.54,62.9-25.82,63.53-62.54C124.85,29.91,98.98,1.09,63.18,0.46z M100.89,78c-0.19,0.3-0.8,0.45-1.23,0.45
			c-3.11,0.05-6.22,0.05-9.33,0.07c-0.38,0-0.77,0.06-1.39,0.1c0.25,0.54,0.38,0.93,0.58,1.28c1.61,2.75,3.24,5.5,4.83,8.26
			c0.18,0.31,0.31,0.84,0.16,1.11c-0.8,1.54-1.7,3.03-2.72,4.83c-1-1.7-1.88-3.18-2.74-4.66c-1.98-3.41-3.93-6.83-5.95-10.21
			c-0.21-0.35-0.82-0.65-1.26-0.66c-3.35-0.05-6.7-0.07-10.05,0.02c-0.55,0.01-1.3,0.46-1.59,0.94c-1.72,2.87-3.31,5.82-4.99,8.71
			c-0.37,0.64-0.33,1.1,0.01,1.75c2.43,4.61,4.8,9.24,7.18,13.87c0.07,0.14,0.1,0.3,0.21,0.67c-1.54,0-3.01,0.06-4.46-0.05
			c-0.33-0.03-0.66-0.62-0.9-1.02c-1.64-2.78-3.26-5.58-4.89-8.36c-0.12-0.2-0.27-0.38-0.56-0.79c-0.93,1.56-1.8,3-2.64,4.45
			c-1.01,1.75-2,3.52-3.02,5.27c-0.15,0.25-0.45,0.58-0.68,0.59c-2.1,0.05-4.2,0.03-6.56,0.03c0.93-1.67,7.03-11.46,9.42-14.77
			c0.26-0.37,0.24-1.2,0.01-1.63c-1.6-2.89-3.32-5.72-4.96-8.59c-0.37-0.66-0.76-0.96-1.58-0.95c-3.39,0.07-6.78,0-10.17,0.07
			c-0.48,0.01-1.15,0.41-1.4,0.83c-1.34,2.22-5.9,11.03-8.08,15.35c-0.85-1.43-1.23-2.3-2.29-3.75c-1.55-2.43-1.32-1.88,0.12-4.19
			c1.47-2.32,2.77-4.74,4.13-7.12c0.16-0.27,0.26-0.57,0.51-1.13c-2.79,0-5.38-0.05-7.96,0.01c-3.91,0.09-3.92,0.12-5.9-3.27
			c-0.37-0.64-0.7-1.3-1.13-2.1c2.07,0,13.65,0.22,16.54,0.22c1.04,0,1.74-0.31,2.28-1.32c1.44-2.7,3.02-5.33,4.56-7.98
			c0.46-0.79,0.55-1.48,0.05-2.33c-1.7-2.84-3.3-5.73-5.02-8.56c-0.23-0.38-0.88-0.69-1.36-0.72c-3.2-0.16-6.4-0.25-9.6-0.32
			c-2.03-0.04-4.07,0.01-6.1,0.01c-0.27,0-0.54-0.06-1.06-0.12c0.87-1.53,1.63-2.95,2.5-4.31c0.17-0.26,0.77-0.35,1.17-0.35
			c3.15-0.04,6.31-0.04,9.46-0.06c0.39,0,0.79-0.05,1.43-0.1c-0.52-0.95-0.93-1.77-1.39-2.57c-1.34-2.31-2.72-4.59-4-6.94
			c-0.23-0.42-0.21-1.16,0.01-1.6c0.54-1.08,1.25-2.08,2.11-3.46c2.3,3.54,4.43,6.79,6.53,10.06c0.77,1.21,1.41,2.51,2.23,3.67
			c0.31,0.45,0.99,0.89,1.5,0.9c3.42,0.05,6.84,0.01,10.26-0.1c0.47-0.01,1.11-0.46,1.37-0.89c1.66-2.81,3.24-5.67,4.86-8.49
			c0.39-0.68,0.46-1.22,0.03-1.97c-1.74-2.99-3.38-6.05-5.08-9.06c-0.93-1.65-1.91-3.27-3.09-5.28c1.99-0.07,3.6-0.18,5.2-0.12
			c0.37,0.02,0.81,0.58,1.06,1c1.49,2.49,2.92,5.02,4.38,7.53c0.26,0.44,0.57,0.84,0.97,1.44c0.37-0.49,0.68-0.83,0.9-1.22
			c1.49-2.58,2.98-5.17,4.42-7.78c0.51-0.92,1.15-1.3,2.22-1.18c1.06,0.12,2.14,0.03,3.48,0.03c-0.48,1.01-0.85,1.9-1.31,2.75
			c-1.57,2.95-3.18,5.87-4.74,8.82c-0.61,1.15-1.18,2.34-1.66,3.55c-0.13,0.33,0.01,0.87,0.21,1.21c1.7,2.97,3.42,5.94,5.21,8.86
			c0.25,0.41,0.95,0.74,1.46,0.75c3.3,0.05,6.61,0,9.91-0.01c0.8,0,1.25-0.3,1.66-1.05c1.74-3.18,3.57-6.31,5.39-9.43
			c0.95-1.62,1.96-3.2,3-4.89c0.83,1.42,1.8,2.95,2.6,4.56c0.18,0.36-0.16,1.07-0.42,1.53c-1.38,2.47-2.81,4.9-4.21,7.36
			c-0.3,0.53-0.54,1.1-0.93,1.9c2.55,0,4.81,0,7.07,0c1.36-0.01,2.71-0.05,4.06-0.02c0.31,0.01,0.76,0.15,0.91,0.38
			c0.9,1.39,1.72,2.83,2.78,4.6c-1.98,0-3.63-0.02-5.27,0c-3.68,0.05-7.37,0.24-11.05,0.13c-1.51-0.05-2,0.73-2.58,1.77
			c-1.39,2.5-2.79,5.01-4.27,7.46c-0.54,0.9-0.54,1.57,0.01,2.48c1.69,2.74,3.29,5.54,4.9,8.34c0.39,0.67,0.89,0.92,1.65,0.91
			c3.42-0.04,13.86-0.44,15.66-0.62c0.38-0.04,0.77,0,1.43,0C102.87,74.69,101.94,76.38,100.89,78z"/>
		<path class="st0" d="M75.57,70.14c-0.57,1.01-1.15,2.01-1.86,3.24c2.12,0,3.91,0,6,0c-0.74-1.3-1.29-2.36-1.92-3.36
			C76.66,68.23,76.65,68.25,75.57,70.14z"/>
		<path class="st0" d="M79.64,52.68c-2.01,0-3.83,0-5.99,0c1.05,1.78,1.95,3.32,3.03,5.13C77.75,55.96,78.65,54.4,79.64,52.68z"/>
		<path class="st0" d="M68.18,53.54c-0.41-0.72-0.93-0.95-1.74-0.92c-1.59,0.06-3.19,0.02-4.78,0.02c-1.6,0-3.2,0.05-4.79-0.02
			c-0.91-0.04-1.46,0.26-1.91,1.07c-1.6,2.88-3.29,5.71-4.86,8.61c-0.24,0.43-0.26,1.21-0.02,1.64c1.63,2.92,3.38,5.78,5.04,8.69
			c0.42,0.73,0.93,0.96,1.73,0.95c3.27-0.05,6.54,0.02,9.81-0.09c0.59-0.02,1.38-0.51,1.69-1.02c1.71-2.82,3.31-5.71,4.9-8.61
			c0.21-0.38,0.28-1.07,0.08-1.43C71.64,59.44,69.88,56.51,68.18,53.54z"/>
	</g>
	<g>
		<path class="st0" d="M387.63,102.01h5.11c0,2.1-0.04,4.06-0.12,5.89h14.93v4.05c0,4.03-0.08,7.38-0.24,10.02
			c-0.13,2.65-0.35,4.82-0.67,6.52c-0.31,1.73-0.77,3.01-1.37,3.85c-0.6,0.84-1.27,1.41-2,1.73c-0.73,0.31-1.67,0.46-2.79,0.43
			c-1.73,0-4.43-0.18-8.09-0.55l0.43-4.76c2.7,0.26,4.73,0.39,6.09,0.39c0.81,0,1.43-0.31,1.85-0.94c0.42-0.63,0.73-2.02,0.94-4.17
			c0.21-2.15,0.33-5.47,0.36-9.98v-1.89h-9.75c-0.52,5.61-1.66,10.09-3.42,13.44c-1.75,3.35-4.41,6.42-7.98,9.2l-3.3-3.61
			c2.96-2.28,5.17-4.79,6.64-7.55c1.47-2.75,2.45-6.58,2.95-11.48h-9.27v-4.71h9.59C387.59,106.1,387.63,104.13,387.63,102.01z"/>
		<path class="st0" d="M440.86,107.08v26.49h-27.63v-4.71h22.4v-17.68h-22.4v-4.71h24.48c-0.31-0.63-1.02-1.95-2.12-3.97l3.7-1.85
			c1.07,2.02,2.07,3.94,2.99,5.78L440.86,107.08z M448.32,105.94l-3.77,1.81c-1.41-2.72-2.44-4.66-3.06-5.82l3.77-1.89
			C446.47,102.24,447.49,104.21,448.32,105.94z"/>
		<path class="st0" d="M451.43,112.07l3.38-4.01c3.38,2.38,6.82,4.98,10.33,7.78c2.46-3.64,4.44-7.91,5.93-12.81l5.38,1.1
			c-1.55,5.79-3.85,10.88-6.91,15.29c3.54,2.93,6.91,5.92,10.14,8.96l-3.57,3.93c-2.93-2.78-6.21-5.68-9.83-8.72
			c-4.14,4.69-9.33,8.67-15.56,11.95l-3.14-4.44c5.87-3.2,10.65-6.89,14.34-11.08C458.25,117.05,454.75,114.4,451.43,112.07z"/>
	</g>
	<path class="st0" d="M141.28,89.77V34.49h12.42v25.9l20.37-25.9h14.23l-18.85,23.93l23.17,31.35h-14.99l-19.08-25.82h-4.85v25.82
		H141.28z"/>
	<path class="st0" d="M195.49,89.77l18.25-55.28h20.07l18.93,55.28h-12.87l-4.47-13.7h-23.1l-4.39,13.7H195.49z M215.55,65.76h16.43
		l-6.89-21.13h-2.8L215.55,65.76z"/>
	<path class="st0" d="M303.94,69.93v9.39c-2.37,3.84-5.64,6.79-9.81,8.86c-4.16,2.07-9,3.1-14.5,3.1c-4.95,0-9.25-0.85-12.91-2.54
		s-6.69-3.89-9.09-6.59c-2.4-2.7-4.19-5.75-5.38-9.16c-1.19-3.41-1.78-6.83-1.78-10.26v-1.67c0-3.48,0.59-6.92,1.78-10.3
		c1.19-3.38,2.95-6.4,5.3-9.05c2.35-2.65,5.26-4.8,8.75-6.44c3.48-1.64,7.52-2.46,12.11-2.46c3.73,0,7.16,0.53,10.26,1.59
		c3.1,1.06,5.82,2.55,8.14,4.47c2.32,1.92,4.18,4.22,5.56,6.89c1.39,2.68,2.23,5.6,2.54,8.78h-12.42c-0.25-1.51-0.77-2.89-1.55-4.13
		c-0.78-1.24-1.79-2.31-3.03-3.22c-1.24-0.91-2.66-1.6-4.28-2.08c-1.62-0.48-3.36-0.72-5.23-0.72c-2.42,0-4.58,0.43-6.47,1.29
		c-1.89,0.86-3.51,2.07-4.85,3.64c-1.34,1.57-2.35,3.42-3.03,5.56c-0.68,2.15-1.02,4.51-1.02,7.08c0,2.73,0.37,5.19,1.1,7.38
		c0.73,2.2,1.81,4.08,3.22,5.64s3.15,2.78,5.22,3.63c2.07,0.86,4.42,1.29,7.04,1.29c2.83,0,5.34-0.48,7.53-1.44
		c2.2-0.96,3.97-2.25,5.34-3.86v-4.69h-14.46v-8.94h30.44v8.94H303.94z"/>
	<path class="st0" d="M343.02,91.28c-5,0-9.34-0.9-13.02-2.69c-3.69-1.79-6.75-4.09-9.2-6.89c-2.45-2.8-4.27-5.87-5.45-9.2
		c-1.19-3.33-1.78-6.56-1.78-9.69v-1.67c0-3.43,0.62-6.84,1.85-10.22c1.24-3.38,3.09-6.41,5.57-9.09c2.47-2.67,5.55-4.85,9.24-6.51
		c3.68-1.67,7.95-2.5,12.8-2.5c4.85,0,9.11,0.83,12.8,2.5c3.68,1.67,6.76,3.84,9.24,6.51c2.47,2.68,4.34,5.71,5.6,9.09
		c1.26,3.38,1.89,6.79,1.89,10.22v1.67c0,3.13-0.61,6.36-1.82,9.69c-1.21,3.33-3.03,6.4-5.45,9.2c-2.42,2.8-5.49,5.1-9.2,6.89
		C352.37,90.38,348.02,91.28,343.02,91.28z M343.02,79.62c2.63,0,4.99-0.45,7.08-1.36c2.1-0.91,3.87-2.16,5.34-3.75
		c1.46-1.59,2.59-3.46,3.37-5.6c0.78-2.14,1.17-4.43,1.17-6.85c0-2.58-0.39-4.95-1.17-7.12s-1.91-4.03-3.37-5.57
		c-1.46-1.54-3.24-2.75-5.34-3.63c-2.1-0.88-4.46-1.33-7.08-1.33s-4.97,0.44-7.04,1.33c-2.07,0.88-3.84,2.1-5.3,3.63
		c-1.46,1.54-2.59,3.4-3.37,5.57s-1.17,4.54-1.17,7.12c0,2.42,0.39,4.71,1.17,6.85c0.78,2.15,1.9,4.01,3.37,5.6
		c1.46,1.59,3.23,2.84,5.3,3.75C338.05,79.17,340.39,79.62,343.02,79.62z"/>
	<path class="st0" d="M377.61,89.77V34.49h17.11l12.64,31.05h1.44l12.49-31.05h17.42v55.28h-12.27V47.06l-12.87,31.5h-11.81
		l-12.8-31.2v42.4H377.61z"/>
	<path class="st0" d="M444.93,89.77V34.49h34.22v10.3h-22.11v11.74h20.9v10.3h-20.9v12.64h22.64v10.3H444.93z"/>
</g>
</svg>
